<svg width="20" height="20" viewBox="0 0 20 20" fill="none" xmlns="http://www.w3.org/2000/svg">
<g clip-path="url(#clip0_110_571)">
<path d="M10.2783 0.702637C6.39605 0.702637 5.26065 0.706642 5.03995 0.724951C4.24326 0.791177 3.74751 0.916621 3.20741 1.18553C2.79119 1.39222 2.46293 1.63181 2.13896 1.96766C1.54894 2.58015 1.19136 3.33367 1.06192 4.22937C0.998981 4.6642 0.980673 4.75289 0.976954 6.97397C0.975524 7.71434 0.976954 8.68871 0.976954 9.99564C0.976954 13.8748 0.981245 15.0091 0.999839 15.2294C1.0642 16.0046 1.18578 16.4924 1.44324 17.0259C1.93528 18.0472 2.875 18.8139 3.98208 19.1C4.36541 19.1987 4.78879 19.253 5.33231 19.2788C5.5626 19.2888 7.90977 19.2959 10.2584 19.2959C12.607 19.2959 14.9556 19.2931 15.1802 19.2816C15.8095 19.252 16.1749 19.203 16.579 19.0985C17.6932 18.811 18.6158 18.0558 19.1179 17.0202C19.3703 16.4996 19.4983 15.9932 19.5562 15.2584C19.5688 15.0982 19.5741 12.544 19.5741 9.99321C19.5741 7.44199 19.5684 4.89249 19.5558 4.73229C19.4972 3.98563 19.3692 3.48357 19.1086 2.9529C18.8947 2.5185 18.6573 2.19409 18.3126 1.86238C17.6974 1.27479 16.945 0.917193 16.0485 0.787887C15.6141 0.725094 15.5276 0.706499 13.3048 0.702637H10.2783Z" fill="url(#paint0_radial_110_571)"/>
<path d="M10.2783 0.702637C6.39605 0.702637 5.26065 0.706642 5.03995 0.724951C4.24326 0.791177 3.74751 0.916621 3.20741 1.18553C2.79119 1.39222 2.46293 1.63181 2.13896 1.96766C1.54894 2.58015 1.19136 3.33367 1.06192 4.22937C0.998981 4.6642 0.980673 4.75289 0.976954 6.97397C0.975524 7.71434 0.976954 8.68871 0.976954 9.99564C0.976954 13.8748 0.981245 15.0091 0.999839 15.2294C1.0642 16.0046 1.18578 16.4924 1.44324 17.0259C1.93528 18.0472 2.875 18.8139 3.98208 19.1C4.36541 19.1987 4.78879 19.253 5.33231 19.2788C5.5626 19.2888 7.90977 19.2959 10.2584 19.2959C12.607 19.2959 14.9556 19.2931 15.1802 19.2816C15.8095 19.252 16.1749 19.203 16.579 19.0985C17.6932 18.811 18.6158 18.0558 19.1179 17.0202C19.3703 16.4996 19.4983 15.9932 19.5562 15.2584C19.5688 15.0982 19.5741 12.544 19.5741 9.99321C19.5741 7.44199 19.5684 4.89249 19.5558 4.73229C19.4972 3.98563 19.3692 3.48357 19.1086 2.9529C18.8947 2.5185 18.6573 2.19409 18.3126 1.86238C17.6974 1.27479 16.945 0.917193 16.0485 0.787887C15.6141 0.725094 15.5276 0.706499 13.3048 0.702637H10.2783Z" fill="url(#paint1_radial_110_571)"/>
<path d="M10.274 3.13428C8.40942 3.13428 8.17542 3.14243 7.44309 3.17576C6.71219 3.20923 6.21329 3.32495 5.77675 3.49473C5.3252 3.6701 4.94215 3.90468 4.56054 4.28644C4.17864 4.66807 3.94407 5.05112 3.76814 5.50255C3.59793 5.93924 3.48207 6.4383 3.44917 7.16894C3.41642 7.90129 3.40784 8.13544 3.40784 10.0001C3.40784 11.8647 3.41613 12.098 3.44932 12.8304C3.48293 13.5613 3.59864 14.0602 3.76828 14.4967C3.94378 14.9483 4.17836 15.3314 4.56011 15.713C4.94158 16.0949 5.32462 16.3301 5.77589 16.5054C6.21272 16.6752 6.71176 16.7909 7.44252 16.8244C8.17485 16.8577 8.40871 16.8659 10.2731 16.8659C12.1379 16.8659 12.3712 16.8577 13.1035 16.8244C13.8344 16.7909 14.3339 16.6752 14.7707 16.5054C15.2221 16.3301 15.6046 16.0949 15.986 15.713C16.3679 15.3314 16.6025 14.9483 16.7784 14.4969C16.9472 14.0602 17.0631 13.5611 17.0974 12.8305C17.1303 12.0982 17.1389 11.8647 17.1389 10.0001C17.1389 8.13544 17.1303 7.90143 17.0974 7.16908C17.0631 6.43816 16.9472 5.93924 16.7784 5.50269C16.6025 5.05112 16.3679 4.66807 15.986 4.28644C15.6041 3.90453 15.2222 3.66995 14.7703 3.49473C14.3326 3.32495 13.8334 3.20923 13.1025 3.17576C12.3702 3.14243 12.137 3.13428 10.2719 3.13428H10.274ZM9.6581 4.37155C9.8409 4.37127 10.0449 4.37155 10.274 4.37155C12.1071 4.37155 12.3244 4.37813 13.0483 4.41103C13.7177 4.44164 14.081 4.5535 14.323 4.64747C14.6434 4.77191 14.8718 4.92067 15.112 5.16098C15.3523 5.40128 15.501 5.63014 15.6257 5.95054C15.7197 6.19228 15.8317 6.55559 15.8622 7.22501C15.8951 7.94878 15.9022 8.16619 15.9022 9.99851C15.9022 11.8308 15.8951 12.0482 15.8622 12.772C15.8316 13.4414 15.7197 13.8047 15.6257 14.0465C15.5013 14.3669 15.3523 14.595 15.112 14.8352C14.8717 15.0755 14.6435 15.2242 14.323 15.3487C14.0813 15.4431 13.7177 15.5547 13.0483 15.5853C12.3245 15.6182 12.1071 15.6253 10.274 15.6253C8.44075 15.6253 8.22348 15.6182 7.49973 15.5853C6.83034 15.5544 6.46703 15.4425 6.22488 15.3485C5.90448 15.2241 5.67563 15.0753 5.43533 14.835C5.19504 14.5947 5.04628 14.3664 4.92156 14.0459C4.82758 13.8042 4.71559 13.4408 4.68512 12.7714C4.65223 12.0477 4.64565 11.8302 4.64565 9.99679C4.64565 8.16333 4.65223 7.94706 4.68512 7.22329C4.71573 6.55388 4.82758 6.19056 4.92156 5.94854C5.046 5.62814 5.19504 5.39928 5.43533 5.15897C5.67563 4.91867 5.90448 4.76991 6.22488 4.64518C6.46689 4.55078 6.83034 4.43921 7.49973 4.40846C8.13308 4.37985 8.37853 4.37127 9.6581 4.36984V4.37155ZM13.9388 5.51156C13.484 5.51156 13.1149 5.88017 13.1149 6.33517C13.1149 6.79003 13.484 7.15907 13.9388 7.15907C14.3936 7.15907 14.7627 6.79003 14.7627 6.33517C14.7627 5.88031 14.3936 5.51128 13.9388 5.51128V5.51156ZM10.274 6.4742C8.32689 6.4742 6.74823 8.05291 6.74823 10.0001C6.74823 11.9472 8.32689 13.5252 10.274 13.5252C12.2211 13.5252 13.7992 11.9472 13.7992 10.0001C13.7992 8.05291 12.2211 6.4742 10.274 6.4742ZM10.274 7.71148C11.5378 7.71148 12.5625 8.73606 12.5625 10.0001C12.5625 11.264 11.5378 12.2887 10.274 12.2887C9.01002 12.2887 7.98547 11.264 7.98547 10.0001C7.98547 8.73606 9.01002 7.71148 10.274 7.71148Z" fill="white"/>
</g>
<defs>
<radialGradient id="paint0_radial_110_571" cx="0" cy="0" r="1" gradientUnits="userSpaceOnUse" gradientTransform="translate(5.91639 20.728) rotate(-90) scale(18.4273 17.143)">
<stop stop-color="#FFDD55"/>
<stop offset="0.1" stop-color="#FFDD55"/>
<stop offset="0.5" stop-color="#FF543E"/>
<stop offset="1" stop-color="#C837AB"/>
</radialGradient>
<radialGradient id="paint1_radial_110_571" cx="0" cy="0" r="1" gradientUnits="userSpaceOnUse" gradientTransform="translate(-2.13891 2.04207) rotate(78.678) scale(8.23717 33.9616)">
<stop stop-color="#3771C8"/>
<stop offset="0.128" stop-color="#3771C8"/>
<stop offset="1" stop-color="#6600FF" stop-opacity="0"/>
</radialGradient>
<clipPath id="clip0_110_571">
<rect width="18.881" height="18.881" fill="white" transform="translate(0.833252 0.55957)"/>
</clipPath>
</defs>
</svg>
