<svg width="18" height="18" viewBox="0 0 18 18" fill="none" xmlns="http://www.w3.org/2000/svg">
<path d="M15.3371 15.3373H12.67V11.1604C12.67 10.1644 12.6522 8.88221 11.2829 8.88221C9.89376 8.88221 9.6812 9.96737 9.6812 11.0879V15.3369H7.01418V6.74766H9.57453V7.92145H9.61044C10.1318 7.0301 11.1047 6.49573 12.1367 6.53406C14.8398 6.53406 15.3383 8.3121 15.3383 10.6253L15.3371 15.3373ZM4.00482 5.57354C4.00466 5.57354 4.00449 5.57354 4.00449 5.57354C3.15542 5.57354 2.45674 4.87493 2.45674 4.02584C2.45674 3.17675 3.15542 2.47806 4.00449 2.47806C4.85349 2.47806 5.55209 3.17659 5.55225 4.02552C5.55225 4.02552 5.55225 4.02568 5.55225 4.02584C5.55225 4.87477 4.85373 5.57346 4.00482 5.57354ZM5.33833 15.3373H2.66848V6.74766H5.33833V15.3373ZM16.6667 0.00124181H1.32821C0.608191 -0.00688999 0.00877577 0.578599 0 1.29863V16.7011C0.00845373 17.4215 0.607788 18.0076 1.32821 17.9999H16.6667C17.3889 18.009 17.9903 17.4229 18 16.7011V1.29758C17.9903 0.576022 17.3881 -0.00938649 16.6667 0.000114025" fill="#0A66C2"/>
</svg>
